<svg xmlns="http://www.w3.org/2000/svg" width="512" height="512" viewBox="0 0 512 512">
	<rect width="512" height="512" fill="#fff"/>

	<g fill="#000">
		<path d="M0 0h512v512H0V0m128 91v368c-.7 7.7 6.1 14.8 13.8 14.7 4.9-.2 10 .7 14.8-.8 5.7-1.9 9.7-7.8 9.4-13.8V371h179v88.9c.2 7.2 6.6 13.7 13.8 13.7 4.6-.1 9.4.4 13.9-.4 6.9-1.4 11.6-7.7 11.3-14.2V275.9c-.1-10.5-9.6-20.2-20.2-19.9-65.9-.1-131.9 0-197.8 0V91c.1-5-2.7-9.8-7-12.3-5.2-3.1-11.5-1.6-17.3-1.9-7.3-.2-14.1 6.6-13.9 14.2z"/>
		<rect x="166" y="294.4" height="38.4" width="179.1"/>
	</g>
</svg>