<svg version="1.1" xmlns="http://www.w3.org/2000/svg" xmlns:xlink="http://www.w3.org/1999/xlink"
	 viewBox="0 0 512 512" enable-background="new 0 0 512 512" xml:space="preserve">
<g id="_x23_fdfdfdff">
	<path fill="#020202" stroke="#020202" stroke-width="9.375000e-02" d="M0,0h512v512H0V0 M127.8,91c0,122.7,0,245.3,0,368
		c-0.5,7.7,6.3,14.8,14,14.7c4.9-0.2,10,0.7,14.8-0.8c5.8-1.9,9.8-7.8,9.5-13.8c0-29.3,0-58.5,0-87.8c59.7,0,119.4,0,179.1,0
		c0,29.5,0,59.1,0,88.6c0,7.2,6.4,13.7,13.6,13.7c4.6-0.1,9.4,0.4,13.9-0.4c6.4-1.4,11.1-7.7,10.8-14.2c0-61,0-122,0-183.1
		c0.4-10.6-9.1-20.3-19.7-20c-65.9-0.1-131.9,0-197.8,0c0-55,0-110,0-164.9c0.1-5-2.7-9.8-7-12.3c-5.2-3.1-11.5-1.6-17.3-1.9
		C134.4,76.6,127.6,83.4,127.8,91z"/>
	<path fill="#020202" stroke="#020202" stroke-width="9.375000e-02" d="M166.2,332.8c0-12.8,0-25.6,0-38.4c59.7,0,119.4,0,179.1,0
		c0,12.8,0,25.6,0,38.4C285.7,332.8,226,332.8,166.2,332.8z"/>
</g>
<g id="_x23_010101ff">
	<path fill="#FEFEFE" stroke="#FEFEFE" stroke-width="9.375000e-02" d="M127.8,91c-0.2-7.6,6.6-14.4,14.2-14.2
		c5.8,0.3,12.1-1.1,17.3,1.9c4.3,2.5,7,7.3,7,12.3c0,55,0,110,0,164.9c65.9,0,131.9-0.1,197.8,0c10.6-0.3,20.1,9.4,19.7,20
		c0,61,0,122,0,183.1c0.3,6.5-4.4,12.8-10.8,14.2c-4.6,0.8-9.3,0.3-13.9,0.4c-7.3,0-13.7-6.5-13.6-13.7c-0.1-29.6,0-59.1,0-88.6
		c-59.7,0-119.4,0-179.1,0c0,29.3,0,58.5,0,87.8c0.2,6-3.8,11.9-9.5,13.8c-4.8,1.4-9.9,0.6-14.8,0.8c-7.7,0.2-14.6-6.9-14-14.7
		C127.8,336.3,127.9,213.6,127.8,91 M166.2,332.8c59.7,0,119.4,0,179.1,0c0-12.8,0-25.6,0-38.4c-59.7,0-119.4,0-179.1,0
		C166.2,307.2,166.2,320,166.2,332.8z"/>
</g>
</svg>
